<svg width="24" height="24" viewBox="0 0 24 24" fill="none" xmlns="http://www.w3.org/2000/svg">
<path d="M18.0699 22H18.4199C18.8899 21.98 19.3199 21.74 19.5899 21.36L21.7299 18.27C21.9599 17.94 22.0499 17.53 21.9699 17.13C21.8899 16.73 21.6599 16.39 21.3299 16.16L16.6899 13.07C16.4446 12.9052 16.1554 12.818 15.8599 12.82C15.4499 12.82 15.0499 12.98 14.7599 13.3L13.2899 14.89C12.5999 14.46 11.6799 13.82 10.9299 13.07C10.2099 12.35 9.55986 11.43 9.10986 10.71L10.6999 9.24002C11.2399 8.74002 11.3399 7.92002 10.9299 7.31002L7.83986 2.67002C7.61986 2.34002 7.26986 2.10002 6.86986 2.03002C6.67509 1.99105 6.47441 1.99224 6.28011 2.0335C6.08582 2.07477 5.90198 2.15525 5.73986 2.27002L2.64986 4.41002C2.25986 4.68002 2.02986 5.11002 2.00986 5.58002C1.97986 6.27002 1.84986 12.48 6.68986 17.32C11.0399 21.67 16.4999 22.01 18.0699 22.01V22ZM6.87986 10.05C6.71986 10.2 6.66986 10.44 6.76986 10.64C6.81986 10.73 7.91986 12.88 9.50986 14.48C11.1099 16.08 13.2599 17.18 13.3499 17.23C13.5499 17.33 13.7899 17.29 13.9399 17.12L15.9299 14.97L19.7899 17.54L18.0899 20C16.9299 20 11.9599 19.76 8.09986 15.9C4.23986 12.04 3.99986 7.06002 3.99986 5.91002L6.45986 4.21002L9.02986 8.07002L6.87986 10.06V10.05Z" fill="white"/>
</svg>
