<svg width="122" height="122" viewBox="0 0 122 122" fill="none" xmlns="http://www.w3.org/2000/svg">
<path d="M38.125 22.875H83.875V30.5H38.125V22.875ZM38.125 38.125H83.875V45.75H38.125V38.125ZM38.125 91.5H61V99.125H38.125V91.5ZM38.125 53.375H61V61H38.125V53.375Z" fill="#3C91E1"/>
<path d="M91.5 114.375H30.5C28.4777 114.375 26.5383 113.572 25.1083 112.142C23.6783 110.712 22.875 108.772 22.875 106.75V15.25C22.875 13.2277 23.6783 11.2883 25.1083 9.85831C26.5383 8.42835 28.4777 7.625 30.5 7.625H91.5C93.5223 7.625 95.4617 8.42835 96.8917 9.85831C98.3216 11.2883 99.125 13.2277 99.125 15.25V106.75C99.125 108.772 98.3216 110.712 96.8917 112.142C95.4617 113.572 93.5223 114.375 91.5 114.375ZM30.5 15.25V106.75H91.5V15.25H30.5Z" fill="#3C91E1"/>
</svg>
