<svg width="61" height="61" viewBox="0 0 61 61" fill="none" xmlns="http://www.w3.org/2000/svg">
<path d="M32.5782 6.9199C31.4058 5.83334 29.5949 5.83334 28.4321 6.9199L7.08206 26.7449C6.16706 27.6027 5.86206 28.9276 6.31956 30.0904C6.77706 31.2532 7.89222 32.0252 9.15035 32.0252H10.6753V48.8002C10.6753 52.1647 13.4108 54.9002 16.7753 54.9002H44.2253C47.5899 54.9002 50.3253 52.1647 50.3253 48.8002V32.0252H51.8503C53.1085 32.0252 54.2332 31.2532 54.6907 30.0904C55.1482 28.9276 54.8432 27.5932 53.9282 26.7449L32.5782 6.9199ZM28.9753 36.6002H32.0253C34.5511 36.6002 36.6003 38.6494 36.6003 41.1752V50.3252H24.4003V41.1752C24.4003 38.6494 26.4496 36.6002 28.9753 36.6002Z" fill="white"/>
</svg>
