<svg width="122" height="122" viewBox="0 0 122 122" fill="none" xmlns="http://www.w3.org/2000/svg">
<path d="M53.4007 76.3008L87.1286 53.375C88.0843 52.6599 88.9247 51.833 89.65 50.8943C92.1205 47.6918 92.0696 43.2439 90.504 39.5229C88.7269 35.3284 85.7508 31.7521 81.949 29.2426C78.1472 26.7331 73.689 25.4021 69.1336 25.4166C64.3756 25.4166 59.9582 26.84 56.283 29.2698L20.293 54.6814" stroke="#3C91E1" stroke-width="4" stroke-linecap="round" stroke-linejoin="round"/>
<path d="M30.4749 68.6605C30.4749 72.1985 32.3507 79.2287 40.8449 81.1604C45.9639 82.3194 60.8631 77.4242 53.5736 63.2315C46.2841 49.0388 28.7314 48.9626 21.5893 53.7206C17.2227 56.3639 8.74878 64.6396 10.3551 75.6399C10.9295 82.2991 16.1755 95.8207 32.5947 96.5934H82.879C87.5659 96.2223 88.5317 95.5412 92.1002 92.8012C96.9039 88.4906 104.92 80.5606 109.582 75.3451C110.588 74.2166 111.671 73.0576 111.813 71.5529C112.55 63.5365 100.391 67.0084 91.5817 66.0527" stroke="#3C91E1" stroke-width="4" stroke-linecap="round" stroke-linejoin="round"/>
</svg>
