<svg width="122" height="122" viewBox="0 0 122 122" fill="none" xmlns="http://www.w3.org/2000/svg">
<path d="M61.0003 10.1665C54.3248 10.1665 47.7146 11.4813 41.5472 14.036C35.3799 16.5906 29.776 20.3349 25.0557 25.0552C15.5226 34.5883 10.167 47.518 10.167 60.9998C10.167 74.4817 15.5226 87.4113 25.0557 96.9444C29.776 101.665 35.3799 105.409 41.5472 107.964C47.7146 110.518 54.3248 111.833 61.0003 111.833C74.4822 111.833 87.4118 106.478 96.9449 96.9444C106.478 87.4113 111.834 74.4817 111.834 60.9998C111.834 54.3243 110.519 47.7141 107.964 41.5468C105.41 35.3794 101.665 29.7756 96.9449 25.0552C92.2246 20.3349 86.6208 16.5906 80.4534 14.036C74.286 11.4813 67.6758 10.1665 61.0003 10.1665ZM82.3503 82.3498L55.917 66.0832V35.5832H63.542V62.0165L86.417 75.7415L82.3503 82.3498Z" fill="#3C91E1"/>
</svg>
