<svg width="61" height="61" viewBox="0 0 61 61" fill="none" xmlns="http://www.w3.org/2000/svg">
<path d="M45.7497 38.125H40.6663V43.2083H45.7497M45.7497 27.9583H40.6663V33.0417H45.7497M50.833 48.2917H30.4997V43.2083H35.583V38.125H30.4997V33.0417H35.583V27.9583H30.4997V22.875H50.833M25.4163 17.7917H20.333V12.7083H25.4163M25.4163 27.9583H20.333V22.875H25.4163M25.4163 38.125H20.333V33.0417H25.4163M25.4163 48.2917H20.333V43.2083H25.4163M15.2497 17.7917H10.1663V12.7083H15.2497M15.2497 27.9583H10.1663V22.875H15.2497M15.2497 38.125H10.1663V33.0417H15.2497M15.2497 48.2917H10.1663V43.2083H15.2497M30.4997 17.7917V7.625H5.08301V53.375H55.9163V17.7917H30.4997Z" fill="white"/>
</svg>
