<svg width="122" height="122" viewBox="0 0 122 122" fill="none" xmlns="http://www.w3.org/2000/svg">
<path fill-rule="evenodd" clip-rule="evenodd" d="M44.9265 14.2588C50.4877 12.3525 54.107 11.1122 57.1875 10.5378V37.9217L15.25 51.9009C15.25 36.3459 15.2907 28.5074 17.1715 25.8335C19.084 23.1042 26.6973 20.4964 41.9212 15.2818L42.0138 15.25L44.9265 14.2588ZM15.25 59.9325L57.1875 45.9534V111.625C54.5899 111.295 52.9124 110.563 50.3199 109.429C36.7982 103.522 15.25 89.6141 15.25 60.9543V59.9325ZM64.8125 10.5327V37.9217L106.75 51.8907C106.75 36.3408 106.709 28.5023 104.828 25.8285C102.914 23.0958 95.2841 20.485 80.023 15.2626L79.9862 15.25L77.0735 14.2537C71.5123 12.3475 67.893 11.1071 64.8125 10.5327Z" fill="#3C91E1"/>
<path d="M64.8125 111.63V45.9534L106.75 59.9325V60.9543C106.75 89.6141 85.2018 103.522 71.6801 109.429L71.6458 109.444C69.0728 110.569 67.3986 111.301 64.8125 111.63Z" fill="#3C91E1"/>
</svg>
